<svg width="2117" height="395" viewBox="0 0 2117 395" fill="none" xmlns="http://www.w3.org/2000/svg">
<path d="M1630.84 71.2874C1537.82 71.2874 1462.55 143.754 1462.55 233.13C1462.55 322.506 1537.93 395 1630.84 395C1723.74 395 1799.12 322.533 1799.12 233.13C1799.12 143.727 1723.88 71.2874 1630.84 71.2874ZM1631.89 305.977C1597.31 305.977 1569.3 273.408 1569.3 233.13C1569.3 192.853 1597.31 160.311 1631.89 160.311C1666.47 160.311 1694.49 192.88 1694.49 233.13C1694.49 273.381 1666.47 305.977 1631.89 305.977Z" fill="#F9F9F9"/>
<path d="M1630.84 71.2874C1537.82 71.2874 1462.55 143.754 1462.55 233.13C1462.55 322.506 1537.93 395 1630.84 395C1723.74 395 1799.12 322.533 1799.12 233.13C1799.12 143.727 1723.88 71.2874 1630.84 71.2874ZM1631.89 305.977C1597.31 305.977 1569.3 273.408 1569.3 233.13C1569.3 192.853 1597.31 160.311 1631.89 160.311C1666.47 160.311 1694.49 192.88 1694.49 233.13C1694.49 273.381 1666.47 305.977 1631.89 305.977Z" fill="url(#paint0_linear_1951_5406)" fill-opacity="0.48"/>
<path d="M2116.99 71.3867V394.767H2012.44L1886.81 223.889V394.767H1772.29V376.878C1772.29 376.878 1835.88 321.321 1837.05 238.945C1838.34 146.75 1772.29 91.8227 1772.29 91.8227V71.3867H1874.96L2003.34 245.415V71.3868L2116.99 71.3867Z" fill="#F9F9F9"/>
<path d="M2116.99 71.3867V394.767H2012.44L1886.81 223.889V394.767H1772.29V376.878C1772.29 376.878 1835.88 321.321 1837.05 238.945C1838.34 146.75 1772.29 91.8227 1772.29 91.8227V71.3867H1874.96L2003.34 245.415V71.3868L2116.99 71.3867Z" fill="url(#paint1_linear_1951_5406)" fill-opacity="0.48"/>
<path d="M501.842 71.386L765.746 71.3868L748.941 140.882H602.216V197.499H727.526V262.644H602.216V394.768H501.842V71.386Z" fill="#F9F9F9"/>
<path d="M501.842 71.386L765.746 71.3868L748.941 140.882H602.216V197.499H727.526V262.644H602.216V394.768H501.842V71.386Z" fill="url(#paint2_linear_1951_5406)" fill-opacity="0.48"/>
<path d="M875.454 341.386H761.967L746.221 394.768H644.158L765.746 71.3868H874.738L988.711 374.585L996.298 394.768H891.629L875.454 341.386ZM854.726 271.46L819.025 155.223L783.697 271.46H854.726Z" fill="#F9F9F9"/>
<path d="M875.454 341.386H761.967L746.221 394.768H644.158L765.746 71.3868H874.738L988.711 374.585L996.298 394.768H891.629L875.454 341.386ZM854.726 271.46L819.025 155.223L783.697 271.46H854.726Z" fill="url(#paint3_linear_1951_5406)" fill-opacity="0.48"/>
<path d="M988.711 374.585L996.298 394.768H1244.63V315.139H1088.66V71.3868H988.711V374.585Z" fill="#F9F9F9"/>
<path d="M988.711 374.585L996.298 394.768H1244.63V315.139H1088.66V71.3868H988.711V374.585Z" fill="url(#paint4_linear_1951_5406)" fill-opacity="0.48"/>
<path d="M1492.35 93.0136C1492.35 93.0136 1475.72 105.238 1467.41 115.748C1457.84 129.104 1449.19 143.094 1441.52 157.622C1441.52 157.622 1371.43 143.019 1338.95 181.74C1333.4 188.212 1309.65 210.615 1326.59 268.558C1332.29 288.057 1358.01 309.437 1394.52 313.364C1405.44 314.526 1438.28 308.883 1438.28 308.883C1438.28 308.883 1455.07 337.233 1461.86 345.862C1467.99 353.634 1489.36 374.405 1489.36 374.405C1489.36 374.405 1431.41 398.495 1375.97 394.568C1365.3 393.825 1302.84 396.442 1248.76 335.02C1240.38 325.503 1232.21 314.45 1224.45 301.609C1219.22 292.953 1200.31 223.199 1224.45 171.617C1232.6 154.221 1262.56 96.903 1327 79.2019C1419.21 53.9503 1492.35 93.0136 1492.35 93.0136Z" fill="#F9F9F9"/>
<path d="M1492.35 93.0136C1492.35 93.0136 1475.72 105.238 1467.41 115.748C1457.84 129.104 1449.19 143.094 1441.52 157.622C1441.52 157.622 1371.43 143.019 1338.95 181.74C1333.4 188.212 1309.65 210.615 1326.59 268.558C1332.29 288.057 1358.01 309.437 1394.52 313.364C1405.44 314.526 1438.28 308.883 1438.28 308.883C1438.28 308.883 1455.07 337.233 1461.86 345.862C1467.99 353.634 1489.36 374.405 1489.36 374.405C1489.36 374.405 1431.41 398.495 1375.97 394.568C1365.3 393.825 1302.84 396.442 1248.76 335.02C1240.38 325.503 1232.21 314.45 1224.45 301.609C1219.22 292.953 1200.31 223.199 1224.45 171.617C1232.6 154.221 1262.56 96.903 1327 79.2019C1419.21 53.9503 1492.35 93.0136 1492.35 93.0136Z" fill="url(#paint5_linear_1951_5406)" fill-opacity="0.48"/>
<path d="M305.846 177.262L312.259 179.437L317.67 175.401L317.584 182.156L323.11 186.049L316.639 188.053L314.635 194.493L310.742 188.997L303.985 189.083L308.022 183.673L305.846 177.262Z" fill="#F9F9F9"/>
<path d="M310.141 213.298C303.777 213.118 297.744 210.423 293.365 205.803C288.986 201.183 286.617 195.016 286.779 188.653C286.743 184.655 287.668 180.706 289.476 177.139C291.285 173.573 293.924 170.493 297.172 168.159C292.774 169.126 288.693 171.191 285.309 174.162C281.926 177.132 279.35 180.911 277.823 185.146C276.296 189.381 275.866 193.934 276.575 198.38C277.284 202.825 279.108 207.019 281.876 210.57C284.645 214.12 288.268 216.911 292.407 218.683C296.547 220.454 301.068 221.149 305.548 220.701C310.029 220.253 314.323 218.678 318.03 216.122C321.736 213.566 324.735 210.113 326.746 206.085C324.62 208.36 322.049 210.174 319.192 211.415C316.336 212.656 313.255 213.297 310.141 213.298Z" fill="#F9F9F9"/>
<path d="M155.944 354.924C154.312 353.035 152.68 351.06 151.019 349.199C152.651 351.117 154.283 353.092 155.944 354.924Z" fill="#F9F9F9"/>
<path d="M185.117 261.069L181.967 263.073L185.661 262.901C188.309 262.686 190.971 262.686 193.62 262.901C194.891 263.048 196.141 263.346 197.341 263.789C197.935 264.009 198.509 264.277 199.059 264.59H199.288C196.849 265.476 194.576 266.763 192.56 268.397C190.175 270.444 188.11 272.837 186.434 275.495C184.687 278.043 183.141 280.676 181.223 282.995C180.287 284.16 179.242 285.233 178.103 286.2C176.936 287.144 175.69 287.986 174.381 288.719C173.064 289.492 171.747 290.236 170.373 290.952C168.998 291.667 167.653 292.268 166.25 292.869C164.849 293.451 163.415 293.948 161.956 294.358C160.5 294.78 159.017 295.106 157.518 295.331C156.012 295.573 154.491 295.717 152.966 295.76H150.676H148.385C146.868 295.76 145.351 295.474 143.833 295.188C142.316 294.902 140.827 294.587 139.339 294.272C140.827 294.644 142.201 295.073 143.805 295.331C145.408 295.589 146.839 295.875 148.357 296.075L150.647 296.276H152.966C154.507 296.257 156.046 296.152 157.575 295.961C159.109 295.753 160.628 295.457 162.127 295.073C163.645 294.673 164.99 294.215 166.565 293.671C168.14 293.127 169.428 292.497 170.802 291.81C172.176 291.123 173.665 290.408 174.896 289.664C176.292 288.944 177.615 288.091 178.847 287.116C180.069 286.133 181.2 285.041 182.225 283.853C184.158 281.45 185.964 278.946 187.636 276.354C189.261 273.834 191.259 271.576 193.562 269.656C195.915 267.85 198.586 266.501 201.435 265.678L203.039 265.22L201.75 264.189C201.179 263.728 200.577 263.307 199.947 262.93C199.315 262.581 198.665 262.266 198 261.985C196.671 261.475 195.288 261.12 193.877 260.926C192.71 260.77 191.534 260.684 190.356 260.669C190.742 260.573 191.134 260.506 191.53 260.468C193.405 259.982 195.322 259.676 197.255 259.552C199.26 259.409 201.292 259.409 203.439 259.18C205.587 258.951 207.562 258.636 209.595 258.264C213.66 257.492 217.639 256.633 221.648 256.146C225.567 255.547 229.561 255.654 233.443 256.461C235.311 256.919 237.098 257.662 238.739 258.665C239.549 259.176 240.323 259.741 241.058 260.354L243.091 262.186C240.686 264.876 235.132 261.499 233.758 265.907C236.42 264.189 239.255 267.366 241.745 267.51C242.228 267.538 242.711 267.461 243.16 267.282C243.609 267.103 244.013 266.828 244.344 266.476C244.674 266.123 244.923 265.702 245.073 265.243C245.223 264.783 245.269 264.297 245.209 263.817C245.488 264.025 245.785 264.207 246.097 264.361C247.127 264.842 248.214 265.188 249.332 265.391L250.878 265.649L252.51 265.849L255.602 266.107H256.718C258.103 266.435 259.39 267.086 260.475 268.006C261.559 268.926 262.411 270.09 262.96 271.402C256.26 268.74 249.074 270.257 242.289 271.946C244.213 271.779 246.133 272.307 247.7 273.434C243.205 278.329 231.181 274.608 225.083 278.014C225.626 277.971 226.172 277.971 226.715 278.014C231.525 289.979 217.067 310.959 203.497 308.211C183.456 304.147 206.188 280.934 202.666 271.545C193.333 290.837 181.452 309.156 157.89 305.492C163.915 307.243 169.688 309.764 175.068 312.991C178.705 314.989 181.724 317.945 183.799 321.538C185.873 325.131 186.923 329.223 186.834 333.371C186.856 343.316 184.227 353.087 179.219 361.679C183.055 362.967 193.161 365.743 193.333 365.858C193.849 365.257 194.679 363.768 195.166 363.167C196.998 360.963 198.716 358.616 200.347 356.269C201.979 353.922 203.525 351.489 204.985 348.999C206.445 346.509 207.848 343.99 209.079 341.443C210.31 338.895 211.599 336.29 212.773 333.686C213.946 331.081 215.091 328.476 216.351 325.986C218.715 319.705 221.508 313.594 224.711 307.696C227.894 301.799 231.552 296.171 235.647 290.866C237.674 288.251 239.904 285.801 242.318 283.538C243.526 282.417 244.829 281.402 246.211 280.504C247.456 279.665 248.859 279.091 250.334 278.816C250.648 278.788 250.965 278.788 251.279 278.816H251.823H252.424C253.367 278.997 254.327 279.074 255.287 279.045C257.17 279.055 259.034 278.665 260.755 277.9C261.314 277.581 261.931 277.377 262.57 277.298C263.209 277.219 263.857 277.268 264.477 277.442C264.925 277.691 265.262 278.1 265.422 278.587C265.629 279.214 265.726 279.873 265.708 280.533L265.508 287.889L268.371 281.134C269.258 279.111 269.8 276.953 269.974 274.751C270.164 272.373 269.516 270.004 268.141 268.053C266.673 266.229 264.671 264.908 262.416 264.275C260.349 263.703 258.229 263.348 256.089 263.216L252.911 263.331L251.451 263.159L249.991 262.93C249.088 262.753 248.205 262.484 247.357 262.128C246.548 261.715 245.805 261.185 245.152 260.554C244.436 259.924 243.635 259.152 242.862 258.493C242.031 257.778 241.141 257.137 240.199 256.576C238.328 255.443 236.289 254.612 234.159 254.114C229.985 253.238 225.687 253.132 221.476 253.799C217.353 254.314 213.316 255.202 209.308 255.975C207.304 256.347 205.3 256.719 203.325 256.948C201.349 257.177 199.288 257.234 197.227 257.434C195.109 257.592 193.01 257.946 190.957 258.493C188.891 259.05 186.921 259.919 185.117 261.069Z" fill="#F9F9F9"/>
<path d="M7.18591 107.307C7.52946 109.54 7.98753 111.715 8.38834 113.919L9.84843 120.502L11.4517 127.028L13.4557 133.44L15.7461 139.794C16.5477 141.912 17.4924 143.945 18.3513 146.034C19.2102 148.124 20.2695 150.099 21.2142 152.131C22.159 154.163 23.2755 156.138 24.3635 158.113L25.9953 160.975L27.799 163.838C29.03 165.727 30.1179 167.702 31.4921 169.562L35.4716 175L39.9091 180.324C40.5978 181.203 41.3337 182.044 42.1136 182.843L44.4326 185.305L46.7229 187.795L49.1564 190.113C50.8169 191.63 52.4201 193.205 54.1092 194.664L59.3198 198.929C61.0089 200.389 62.927 201.591 64.7307 202.936L67.4505 204.883C67.9085 205.198 68.338 205.541 68.8247 205.827L70.2561 206.715L75.982 210.207L77.4134 211.065L78.8735 211.838L81.7365 213.384C83.7119 214.386 85.63 215.531 87.6913 216.246L93.7894 218.908C94.82 219.337 95.8221 219.824 96.8527 220.225L99.9733 221.37L106.214 223.574C110.423 224.976 114.803 226.035 118.954 227.237C114.889 225.52 110.795 223.917 106.787 222.171L100.832 219.309L97.9692 217.935C96.9958 217.448 96.0511 216.904 95.1063 216.389L89.3805 213.298C87.4623 212.268 85.63 211.037 83.6546 209.92L80.7917 208.232L79.3889 207.373L78.0433 206.457L72.7182 202.707C70.9146 201.505 69.2827 200.074 67.565 198.758C65.8472 197.441 64.1295 196.153 62.5549 194.664L57.7452 190.314C56.1705 188.854 54.7104 187.251 53.1931 185.734C52.4201 184.99 51.6471 184.217 50.9028 183.444L48.7842 181.011L46.6656 178.607C45.9311 177.817 45.2428 176.986 44.6043 176.117L40.6535 171.022L37.218 165.841C35.9583 164.095 34.9276 162.206 33.7825 160.403L32.0934 157.54L30.5474 154.678C29.5453 152.789 28.4861 150.929 27.6844 148.954C26.8828 146.979 25.7663 145.118 24.9933 143.229C24.2203 141.34 23.1324 139.279 22.3594 137.39L20.0404 131.236L18.1509 125.082L16.4332 118.871L14.9731 112.574L13.742 106.22C12.9976 101.955 12.3392 97.6327 11.9097 93.3965C11.4517 89.9045 11.4517 86.4125 11.194 83.0064C11.194 83.264 11.4517 83.5502 11.5948 83.8078C12.2247 85.0672 12.8545 86.298 13.5416 87.4716C14.2287 88.6451 14.9158 89.9045 15.6315 91.078L17.8074 94.4556C18.5231 95.6291 19.3533 96.7168 20.1263 97.8617C20.8993 99.0066 21.6723 100.123 22.4739 101.211C23.2755 102.298 24.0772 103.443 24.9074 104.531L27.3982 107.794L29.9748 110.971C33.4389 115.179 37.0176 119.3 40.7966 123.222C39.1648 121.046 37.5902 118.814 36.0442 116.581C34.4982 114.348 32.9522 112.145 31.4635 109.883C29.9748 107.622 28.6292 105.332 27.026 103.042L24.9074 99.6077C24.1917 98.4628 23.5332 97.3178 22.8747 96.1157C21.5005 93.7972 20.2408 91.4501 18.9525 89.0744C18.3513 87.9009 17.7787 86.6701 17.1775 85.4966C16.5763 84.323 16.061 83.0064 15.5456 81.8615C15.0303 80.7165 14.4577 79.4285 14.0569 78.1691C13.6561 76.9097 13.1694 75.7075 12.7972 74.4195L11.7952 70.6985L11.2513 67.0062L8.58874 47.8574L6.18389 67.0062C5.65412 71.4904 5.37693 76.0008 5.35364 80.5162C5.35364 85.01 5.35364 89.4752 5.84033 93.9403C6.32703 98.4055 6.55607 102.871 7.18591 107.307Z" fill="#F9F9F9"/>
<path d="M9.64807 179.065C10.736 181.927 12.0243 184.789 13.3412 187.652C14.0283 189.025 14.7441 190.514 15.4884 191.745C16.2328 192.975 17.0058 194.407 17.8074 195.723C18.609 197.04 19.4106 198.357 20.2982 199.616C21.1857 200.875 22.0159 202.163 22.932 203.423L25.795 207.115L28.6579 210.636C30.7478 212.897 32.895 215.13 35.1567 217.219C36.2733 218.307 37.4471 219.28 38.6495 220.282C39.8519 221.284 40.9971 222.285 42.2568 223.144C43.5165 224.003 44.6903 225.005 46.0072 225.835L49.8722 228.353C52.5633 229.899 55.1972 231.502 58.0029 232.79C60.8085 234.078 63.7287 235.28 66.4485 236.425C67.88 236.969 69.3114 237.398 70.8288 237.885C72.2615 238.41 73.7242 238.85 75.209 239.201L79.6466 240.318C81.1353 240.661 82.5095 240.89 84.1414 241.176C87.1329 241.754 90.1526 242.175 93.1882 242.436C96.1943 242.808 99.229 242.808 102.235 242.951C105.241 243.094 108.304 242.951 111.311 242.779L102.35 241.749L97.912 241.033C96.4233 240.804 95.0491 240.604 93.5031 240.261C90.6402 239.631 87.7773 239.058 84.9144 238.228C83.4829 237.828 82.0514 237.513 80.62 237.055L76.4115 235.652C75.0086 235.223 73.5485 234.679 72.2602 234.135C70.9719 233.591 69.3973 233.105 68.1662 232.475C65.5037 231.244 62.8126 230.042 60.2646 228.582C57.7166 227.123 55.1972 225.72 52.7065 224.117L49.0992 221.598C47.8967 220.768 46.7802 219.795 45.635 218.908C45.0624 218.45 44.4612 218.049 43.9173 217.563L42.2568 216.131C41.1689 215.158 40.0237 214.242 39.0217 213.269C36.8745 211.294 34.8991 209.147 32.9236 206.972L30.0607 203.623L27.3696 200.16C26.4821 198.986 25.6518 197.784 24.7929 196.582C23.9341 195.38 23.2183 194.149 22.3881 192.918C21.5578 191.687 20.8994 190.399 20.155 189.14L18.0364 185.276C16.6909 182.671 15.3739 180.038 14.2288 177.347C13.6275 175.973 13.0836 174.485 12.5396 173.226L13.055 173.712L15.2021 175.63L17.4066 177.405C18.151 178.006 18.9239 178.521 19.6969 179.065C21.2143 180.181 22.8175 181.183 24.3921 182.185C25.9667 183.186 27.5986 184.102 29.2591 185.047C32.5404 186.819 35.9139 188.414 39.3652 189.827C37.762 188.911 36.1874 187.909 34.6414 186.965C33.0954 186.02 31.5494 184.961 30.0321 183.873C28.5147 182.786 27.0547 181.412 25.5946 180.324C24.1345 179.236 22.7316 178.063 21.3288 176.861C19.926 175.659 18.609 174.428 17.1776 173.168L15.288 171.222C14.6582 170.592 14.1429 169.877 13.5416 169.19L12.6828 168.159L11.9384 167.072C11.4186 166.376 10.9406 165.649 10.5069 164.896C10.1348 164.152 9.64807 163.408 9.33315 162.635L8.58879 160.288L4.52344 161.29C5.04704 164.345 5.75451 167.365 6.642 170.335C7.50088 173.312 8.58879 176.231 9.64807 179.065Z" fill="#F9F9F9"/>
<path d="M19.4393 240.175C20.4985 241.177 21.5865 242.122 22.6744 243.038C23.7623 243.954 24.9647 244.841 26.1099 245.728C27.255 246.616 28.5147 247.36 29.7172 248.19C32.1374 249.748 34.6414 251.172 37.218 252.455C38.5063 253.142 39.8519 253.657 41.1975 254.229C42.5247 254.807 43.8817 255.313 45.2628 255.746C46.637 256.176 47.9826 256.691 49.3854 257.034L53.5939 258.122C54.9968 258.466 56.4569 258.666 57.8311 258.952L59.9496 259.324C60.6654 259.324 61.3811 259.496 62.0968 259.582L66.3626 260.04L70.657 260.269C73.5199 260.469 76.3828 260.269 79.2457 260.269C82.1087 260.269 84.9716 259.839 87.8345 259.639C90.6974 259.439 93.5604 258.866 96.2515 258.437C98.9427 258.008 101.806 257.349 104.583 256.72L112.771 254.573L104.411 255.861L96.0511 256.863C93.1882 257.092 90.3253 257.235 87.6627 257.464C85.0002 257.693 81.9369 257.635 79.2744 257.464C76.6119 257.292 73.5485 257.464 70.9146 257.034L66.7634 256.662L62.6694 256.033L60.6081 255.718L58.5754 255.288C57.2299 254.974 55.8843 254.745 54.5387 254.401L50.5592 253.256C49.2423 252.884 47.954 252.369 46.6657 251.939L44.7189 251.224L42.9439 250.508C41.6842 249.964 40.4245 249.478 39.2221 248.82C36.7682 247.599 34.3792 246.252 32.0648 244.784L28.6292 242.437L25.4228 239.889L22.3594 237.027C21.386 236.054 20.384 235.109 19.4965 234.165C17.6417 232.194 15.911 230.11 14.3146 227.925C12.6978 225.715 11.1975 223.422 9.81983 221.055C8.96095 219.538 8.18796 217.993 7.41497 216.418L8.21659 217.048C11.7078 219.341 15.4311 221.26 19.3247 222.773C26.9446 225.804 34.8607 228.029 42.9439 229.413C39.0217 228.268 35.1567 226.98 31.3204 225.578C29.4309 224.862 27.5127 224.147 25.5945 223.345C23.6764 222.544 21.8727 221.742 20.0405 220.855C16.4089 219.157 12.9643 217.085 9.76257 214.672C8.98958 214.071 8.24522 213.442 7.52949 212.812C6.89294 212.167 6.29089 211.488 5.72585 210.78C5.17253 210.061 4.68393 209.295 4.26576 208.49C4.16584 208.33 4.08875 208.156 4.03672 207.975C3.83632 207.316 3.60728 206.658 3.43551 206.028L0 206.687C0.634531 209.54 1.50597 212.336 2.60526 215.045C3.68958 217.744 4.92252 220.381 6.29843 222.944C7.66458 225.499 9.20464 227.957 10.9077 230.301C12.596 232.666 14.4319 234.922 16.4046 237.056C17.378 238.115 18.4372 239.145 19.4393 240.175Z" fill="#F9F9F9"/>
<path d="M23.1037 269.256C25.1078 270.687 27.1691 272.119 29.259 273.263C31.349 274.408 33.4675 275.725 35.6433 276.87C37.8192 278.015 40.0236 279.045 42.2853 280.047L45.6922 281.421L49.1564 282.68C51.504 283.425 53.8516 284.169 56.2564 284.741C57.4302 285.085 58.6613 285.342 59.8637 285.571C61.0661 285.8 62.2686 286.058 63.4996 286.172C64.7307 286.287 65.9331 286.544 67.1928 286.63L70.886 286.917C73.3464 287.045 75.8119 287.045 78.2723 286.917H80.1332L81.9655 286.688C83.1679 286.487 84.399 286.401 85.6014 286.115L89.2373 285.342C90.4111 285.056 91.5849 284.627 92.7587 284.283L94.4764 283.367L96.1942 282.68C97.3394 282.222 98.4846 281.822 99.6011 281.306C101.825 280.283 103.986 279.126 106.071 277.843C107.126 277.258 108.148 276.618 109.135 275.925L111.998 273.779C112.996 273.073 113.952 272.308 114.86 271.489L117.723 269.142C115.691 270.43 113.773 272.004 111.683 273.063L108.591 274.866C107.56 275.467 106.443 275.925 105.384 276.469C103.259 277.535 101.08 278.49 98.8567 279.331C97.7688 279.761 96.6236 280.076 95.5071 280.448L93.818 280.963C93.2454 281.135 92.6728 281.249 92.1002 281.392C90.955 281.65 89.8099 281.965 88.6647 282.165L85.1719 282.738C84.0268 282.938 82.8243 282.967 81.6792 283.11H79.9328H78.1578C75.8102 283.11 73.4912 283.11 71.1436 283.11L67.6508 282.738C66.477 282.738 65.3319 282.366 64.1867 282.194C63.0415 282.022 61.8677 281.764 60.7226 281.507C59.5774 281.249 58.4322 281.02 57.3157 280.705C55.0254 280.133 52.7923 279.389 50.5592 278.645L47.2096 277.643L43.9458 276.269C41.7986 275.324 39.6514 274.351 37.5329 273.407C35.4143 272.462 33.3816 271.203 31.349 270C29.3163 268.798 27.3122 267.539 25.3368 266.251L25.0792 266.05H25.4227C26.3657 266.287 27.3216 266.468 28.2856 266.594C29.259 266.766 30.2038 266.909 31.1486 266.995C32.0933 267.081 33.0667 267.195 34.0115 267.253L36.8744 267.396C37.8192 267.396 38.7926 267.396 39.7373 267.396C40.6821 267.396 41.6555 267.396 42.6003 267.396C43.545 267.396 44.5184 267.396 45.4632 267.195C49.3241 266.883 53.1537 266.261 56.9149 265.335C55.0253 265.564 53.1072 265.707 51.189 265.793C49.2709 265.879 47.41 265.793 45.4632 265.793C44.5184 265.793 43.5737 265.793 42.6003 265.793C41.6269 265.793 40.7394 265.793 39.7373 265.793C38.7353 265.793 37.8478 265.793 36.8744 265.564L34.0115 265.22L31.1486 264.791C30.2324 264.791 29.3163 264.448 28.4288 264.219C27.6423 263.959 26.8685 263.663 26.1098 263.331L23.4759 262.53L20.8993 261.528C20.0666 261.183 19.2541 260.791 18.4658 260.354C17.6491 259.968 16.8641 259.519 16.1182 259.009L13.8851 257.492L11.6234 260.183C13.4557 261.929 15.3166 263.474 17.3493 265.02C19.3819 266.566 21.0997 267.854 23.1037 269.256Z" fill="#F9F9F9"/>
<path d="M50.8741 312.849C51.9334 313.049 52.9927 313.278 54.052 313.45L57.2012 313.908L60.4077 314.166C61.467 314.166 62.5549 314.166 63.6141 314.166C64.6734 314.166 65.7613 314.166 66.8206 314.166C67.8922 314.155 68.9625 314.088 70.0271 313.965C72.1457 313.965 74.2642 313.421 76.3542 313.078C78.4402 312.667 80.5042 312.152 82.5381 311.532C84.5994 310.96 86.5462 310.13 88.5502 309.386C90.5543 308.641 92.4438 307.726 94.2761 306.523L97.139 305.006L99.8015 303.346C101.605 302.259 103.266 300.942 104.955 299.711C106.644 298.48 108.161 297.049 109.764 295.704C111.368 294.359 112.627 292.842 114.259 291.382L109.249 295.046C107.503 296.162 105.842 297.393 104.067 298.452C102.292 299.511 100.575 300.598 98.7136 301.486L96.0225 302.917L93.1595 304.176L91.7567 304.777L90.3252 305.321L87.4623 306.409C85.5155 307.01 83.626 307.697 81.7365 308.126C79.8469 308.556 77.7856 308.956 75.8102 309.357C73.8348 309.758 71.8307 309.901 69.8267 309.987C68.8247 309.987 67.794 309.987 66.792 309.987C65.79 309.987 64.788 309.987 63.7859 309.987C62.7839 309.987 61.7819 309.987 60.7799 309.844L57.9169 309.529L55.054 309.071L52.1911 308.498C50.2443 308.04 48.2975 307.554 46.4652 306.953C44.633 306.352 42.6289 305.693 40.7394 304.949C38.8499 304.205 37.0176 303.346 35.2426 302.43L34.7845 302.201C35.2998 302.201 35.8152 302.201 36.3591 302.201C37.2552 302.258 38.1541 302.258 39.0503 302.201H41.77C42.6575 302.201 43.5451 302.001 44.4326 301.915C45.3201 301.829 46.2076 301.629 47.0951 301.486C47.9731 301.329 48.8426 301.129 49.7003 300.885C50.5592 300.656 51.4467 300.484 52.277 300.198C53.1072 299.911 53.9947 299.682 54.825 299.368C58.1497 298.168 61.344 296.633 64.3585 294.788C62.7502 295.492 61.1066 296.113 59.4343 296.648C57.8024 297.192 56.1133 297.65 54.4242 298.08L51.9048 298.623C51.0459 298.824 50.187 298.938 49.3568 299.081C48.5265 299.225 47.639 299.31 46.7802 299.396C45.9347 299.506 45.0843 299.573 44.2321 299.597H41.6555H39.1075C38.2639 299.553 37.423 299.467 36.5881 299.339C35.7509 299.283 34.9186 299.168 34.0974 298.996L31.6067 298.509L29.2018 297.765L27.5413 297.679L26.3961 297.192L24.0772 296.219L12.7972 291.439L22.159 299.225C23.8382 300.575 25.5869 301.836 27.3982 303.003C29.2018 304.148 31.0341 305.264 32.9236 306.237C34.8131 307.21 36.7313 308.098 38.6495 308.956C40.5676 309.815 42.6289 310.502 44.633 311.132C46.6797 311.82 48.7634 312.393 50.8741 312.849Z" fill="#F9F9F9"/>
<path d="M68.9965 340.298C69.7976 340.341 70.6003 340.341 71.4014 340.298C74.609 340.277 77.8052 339.913 80.9349 339.21C82.4809 338.781 84.0269 338.38 85.5156 337.807C86.2779 337.559 87.0237 337.262 87.7487 336.92C88.4951 336.623 89.2218 336.279 89.9245 335.89L92.0144 334.773L94.0185 333.485C95.3417 332.605 96.6131 331.65 97.8262 330.623C99.0168 329.604 100.154 328.525 101.233 327.389C102.316 326.26 103.338 325.075 104.296 323.839C105.298 322.637 106.071 321.292 106.959 320.033C107.846 318.773 108.505 317.371 109.278 316.025L106.415 319.517C105.327 320.605 104.354 321.779 103.237 322.78L101.605 324.355C101.061 324.87 100.431 325.328 99.8875 325.814C98.7709 326.816 97.5113 327.675 96.3375 328.677C95.7362 329.135 95.0778 329.478 94.4479 329.879C93.8181 330.28 93.2169 330.68 92.5584 331.024L90.6116 332.083L88.5789 332.97C87.9205 333.285 87.2047 333.485 86.5462 333.772C85.8878 334.058 85.172 334.287 84.4563 334.487C83.0634 334.914 81.6491 335.268 80.2192 335.546C78.7877 335.804 77.3563 336.004 75.8962 336.147C74.4413 336.3 72.9786 336.367 71.5159 336.348C70.7715 336.348 70.0558 336.348 69.3114 336.348C68.5671 336.348 67.8514 336.348 67.107 336.348C65.6469 336.176 64.2441 336.004 62.7553 335.747C61.2666 335.489 59.8924 335.203 58.4037 334.831C56.915 334.459 55.5408 334.029 54.1666 333.571L51.7903 332.741L52.821 332.569C54.0807 332.255 55.369 332.054 56.5714 331.625L58.4323 331.052L60.2646 330.394C60.8658 330.165 61.4384 329.908 62.0396 329.621C62.6408 329.335 63.2134 329.106 63.7574 328.763C64.9007 328.173 66.0009 327.504 67.0497 326.759C68.0722 326.011 69.0299 325.178 69.9127 324.269C70.8213 323.418 71.6196 322.456 72.2889 321.406C71.4313 322.325 70.4706 323.141 69.426 323.839C68.4177 324.56 67.3553 325.201 66.2481 325.757C65.1579 326.302 64.0398 326.789 62.8985 327.217C62.3259 327.475 61.7247 327.618 61.1521 327.818C60.5793 328.02 59.9964 328.192 59.4057 328.333L57.6593 328.791L55.8557 329.135C54.6533 329.421 53.4222 329.507 52.2484 329.707C51.6472 329.707 51.0174 329.707 50.4161 329.879H48.5839H44.9193L38.764 330.051L44.0891 333.199C45.4722 334.007 46.896 334.742 48.3548 335.403C49.7863 336.09 51.2178 336.663 52.7351 337.235C55.7216 338.295 58.7841 339.128 61.8965 339.725C63.4579 340.031 65.0349 340.25 66.6203 340.383C67.4219 340.24 68.2235 340.269 68.9965 340.298Z" fill="#F9F9F9"/>
<path d="M92.8733 358.244C93.9899 357.758 95.1637 357.357 96.2516 356.784L99.4294 354.981C100.46 354.294 101.433 353.55 102.292 352.863C103.312 352.153 104.269 351.358 105.155 350.487C106.056 349.682 106.916 348.832 107.732 347.94C108.505 347.053 109.249 346.108 110.022 345.078C110.79 344.184 111.479 343.226 112.084 342.215L113.973 339.353C114.546 338.323 115.004 337.206 115.519 336.147C116.034 335.088 116.464 334 116.951 332.941C116.235 333.886 115.49 334.802 114.803 335.804C114.116 336.806 113.429 337.664 112.713 338.666L110.423 341.242C109.703 342.129 108.929 342.97 108.104 343.761C107.274 344.534 106.444 345.307 105.642 346.108C104.84 346.909 103.896 347.51 103.008 348.226C102.111 348.955 101.153 349.606 100.145 350.172C99.2004 350.773 98.2842 351.403 97.2822 351.947L94.4193 353.435C93.4173 353.922 92.358 354.266 91.3273 354.666C90.3016 355.064 89.2493 355.389 88.1781 355.639C87.1264 355.949 86.0552 356.188 84.9716 356.355C83.8827 356.564 82.7838 356.717 81.6793 356.813C81.3357 356.813 80.9636 356.813 80.5914 356.813L81.5648 356.24C82.0515 355.954 82.5095 355.554 82.9962 355.239C83.4643 354.891 83.9135 354.518 84.3418 354.122C84.7712 353.722 85.2293 353.378 85.6301 352.949C86.0309 352.519 86.4317 352.119 86.8039 351.689L87.8918 350.344L88.8939 348.942C89.489 348.018 90.0338 347.062 90.5257 346.079C91.0181 345.07 91.4113 344.016 91.6995 342.931C91.1605 343.929 90.5481 344.886 89.8672 345.793C89.2079 346.671 88.5007 347.512 87.7487 348.312L86.6035 349.457L85.4011 350.516L84.17 351.518C83.7406 351.861 83.2825 352.119 82.8531 352.434C82.4217 352.737 81.9724 353.014 81.5075 353.264L80.1333 354.008L78.7018 354.666C78.2394 354.778 77.7711 354.864 77.299 354.924C76.8131 355.116 76.3159 355.278 75.8103 355.41L74.2929 355.754C73.7933 355.879 73.2866 355.975 72.7756 356.04L71.2296 356.298L62.4404 357.672L71.0292 359.904C72.2506 360.24 73.4943 360.489 74.751 360.648C75.9821 360.82 77.2131 360.877 78.4442 360.935C79.6752 360.992 80.9063 360.935 82.1087 360.935C83.3111 360.935 84.5708 360.734 85.7733 360.477C86.9843 360.285 88.1802 360.008 89.3519 359.647C90.5548 359.256 91.731 358.787 92.8733 358.244Z" fill="#F9F9F9"/>
<path d="M130.177 351.403L128.202 353.55C127.586 354.295 126.916 354.993 126.198 355.64C125.511 356.269 124.795 356.899 124.108 357.586C123.405 358.208 122.669 358.79 121.903 359.332C121.185 359.936 120.419 360.481 119.613 360.963C118.811 361.45 118.038 361.994 117.237 362.452L114.746 363.654C113.916 364.055 113.028 364.341 112.169 364.684C111.311 365.028 110.394 365.228 109.536 365.486C108.677 365.743 107.732 365.887 106.844 366.087C106.002 366.255 105.152 366.379 104.296 366.459C104.64 366.23 104.983 365.944 105.327 365.686C105.743 365.403 106.135 365.087 106.501 364.742C106.875 364.42 107.229 364.076 107.56 363.711C107.904 363.368 108.247 363.024 108.562 362.652C109.179 361.893 109.752 361.1 110.28 360.276C110.796 359.48 111.256 358.648 111.654 357.786C112.063 356.868 112.37 355.908 112.57 354.924C112.095 355.736 111.559 356.511 110.967 357.242C110.405 357.962 109.803 358.651 109.163 359.303C108.53 359.951 107.861 360.563 107.159 361.135L106.1 361.965C105.756 362.251 105.356 362.452 105.012 362.709C104.647 362.965 104.265 363.195 103.867 363.396C103.466 363.597 103.094 363.826 102.693 363.997L101.491 364.541C101.101 364.714 100.699 364.858 100.288 364.971C99.877 365.13 99.4563 365.264 99.0286 365.371L97.7689 365.658C96.9386 365.858 96.0511 365.915 95.2209 366.058L86.8325 367.547L94.9632 369.693C96.0135 369.989 97.0857 370.199 98.1697 370.323C99.2123 370.481 100.264 370.567 101.319 370.581C102.35 370.581 103.409 370.581 104.44 370.581C105.486 370.513 106.527 370.389 107.56 370.209C108.593 370.037 109.616 369.808 110.623 369.522C111.596 369.244 112.552 368.909 113.486 368.52C114.431 368.09 115.433 367.747 116.349 367.26L119.212 365.715C120.071 365.142 120.901 364.484 121.732 363.883C122.573 363.276 123.358 362.596 124.079 361.851C124.837 361.169 125.554 360.442 126.226 359.675C126.885 358.903 127.515 358.101 128.145 357.3C128.794 356.519 129.378 355.686 129.891 354.809L131.437 352.233C131.924 351.346 132.267 350.402 132.697 349.371C133.126 348.341 133.498 347.539 133.87 346.509C133.212 347.282 132.582 348.026 132.009 348.827C131.437 349.629 130.778 350.63 130.177 351.403Z" fill="#F9F9F9"/>
<path d="M362.733 302.401L373.812 309.958C292.018 386.553 213.03 376.764 173.007 360.649C168.97 359.017 165.334 357.329 162.099 355.64C158.07 353.566 154.237 351.133 150.647 348.37C149.265 347.051 148.139 345.489 147.326 343.761C146.839 342.559 144.463 337.235 144.091 335.919L142.116 330.194L140.341 324.469L139.453 321.607L138.709 318.745C138.222 316.799 137.649 314.881 137.22 313.02L135.96 307.124C135.531 305.149 135.273 303.145 134.93 301.17L134.443 298.308L134.071 295.446C133.842 293.442 133.527 291.467 133.412 289.464C133.298 287.46 133.04 285.456 132.954 283.453L132.782 277.442V271.431C132.782 269.428 133.011 267.453 133.126 265.449C133.24 263.445 133.555 261.47 133.756 259.495C133.956 257.52 134.357 255.545 134.643 253.57C134.93 251.596 135.416 249.649 135.817 247.846C136.218 246.043 136.791 243.953 137.306 242.121C138.392 238.296 139.682 234.531 141.171 230.844C142.646 227.155 144.328 223.552 146.21 220.053C148.135 216.586 150.257 213.232 152.565 210.006C154.821 206.593 157.349 203.368 160.123 200.36C162.783 197.612 165.785 195.217 169.056 193.233L170.258 192.604H170.63L171.117 192.461C171.889 192.23 172.688 192.105 173.493 192.088C175.267 192.046 177.035 192.288 178.732 192.804C180.475 193.312 182.148 194.033 183.714 194.951C185.136 195.744 186.36 196.85 187.292 198.185L190.384 203.337L191.845 197.613C192.569 194.752 192.753 191.782 192.389 188.854C191.992 185.961 191.111 183.155 189.783 180.553C187.099 175.62 183.459 171.271 179.076 167.759C178.017 166.843 177.015 166.042 175.812 165.183C174.61 164.324 173.751 163.666 172.463 162.922C170.104 161.436 167.623 160.153 165.048 159.086C159.952 156.968 154.741 155.709 149.931 154.077C147.547 153.265 145.214 152.309 142.946 151.215C140.701 150.112 138.539 148.849 136.476 147.437C135.474 146.778 134.357 145.977 133.298 145.233L129.977 142.972L123.507 138.564C119.212 135.701 114.918 132.553 110.996 129.29C107.073 126.027 103.065 122.649 99.2862 119.1C95.5071 115.551 92.1289 111.629 88.7506 107.622C87.6627 106.449 86.6321 105.189 85.5728 103.958L83.1393 101.096C81.6792 99.2929 80.2764 97.4897 78.8736 95.6578C75.6384 91.5934 72.7183 87.2713 69.884 83.0065C68.4811 80.8311 67.021 78.6272 65.79 76.3946C64.5589 74.162 63.1847 71.9294 61.9537 69.6396C59.4916 65.0885 57.1153 60.4516 54.9681 55.7288C53.8802 53.3531 52.7637 51.0061 51.7903 48.6017C50.8169 46.1974 49.729 43.8217 48.9274 41.3887C47.0092 36.5801 45.2628 31.657 43.631 26.7338C42.8293 24.2436 41.9705 21.782 41.2547 19.2919L39.0789 11.764L35.5575 0L34.126 11.993C33.5535 16.773 33.2958 21.4099 33.1526 26.1041C33.0095 30.7983 33.0095 35.4638 33.1526 40.1293C33.4936 49.4758 34.3826 58.7943 35.8152 68.0367C38.606 86.5444 43.8933 104.588 51.5326 121.676C53.4508 125.941 55.5694 130.263 57.8311 134.184C60.0928 138.106 62.4976 142.285 65.1315 146.149C70.353 153.885 76.2242 161.162 82.6812 167.902C85.8877 171.251 89.3805 174.6 92.8733 177.462C96.366 180.324 100.031 183.416 103.724 186.221C107.417 189.026 111.339 191.545 115.319 193.949C119.298 196.353 123.363 198.586 127.457 200.704C123.421 198.414 119.441 196.067 115.605 193.491C111.769 190.915 108.018 188.196 104.354 185.391C100.689 182.586 97.1676 179.666 93.818 176.403C90.4684 173.14 87.176 170.02 84.1127 166.585C77.9175 159.77 72.3325 152.424 67.4219 144.632C62.5059 136.876 58.1987 128.752 54.5387 120.331C47.3433 103.436 42.4795 85.6411 40.0809 67.4356C38.8106 58.365 38.065 49.2286 37.8478 40.0721C37.8478 35.6642 37.8478 31.2849 37.8478 26.8769C41.1975 45.2815 58.5182 119.873 131.695 158.857C131.695 158.857 159.665 172.138 140.083 201.477C140.083 201.477 100.002 269.714 136.848 332.427C138.365 335.003 139.997 337.579 141.772 340.126C142.201 340.699 142.889 341.7 143.633 342.76C145.394 345.232 147.306 347.593 149.359 349.829C154.144 354.109 159.162 358.123 164.389 361.851C275.327 441.137 393.137 321.579 393.137 321.579L407.051 328.82C407.051 328.82 421.365 269.771 421.165 269.914C384.119 289.235 362.733 302.401 362.733 302.401Z" fill="#F9F9F9"/>
<defs>
<linearGradient id="paint0_linear_1951_5406" x1="2116.99" y1="232.559" x2="501.93" y2="232.559" gradientUnits="userSpaceOnUse">
<stop stop-color="#EDEDED"/>
<stop offset="1" stop-color="#F9F9F9"/>
</linearGradient>
<linearGradient id="paint1_linear_1951_5406" x1="2116.99" y1="232.559" x2="501.93" y2="232.559" gradientUnits="userSpaceOnUse">
<stop stop-color="#EDEDED"/>
<stop offset="1" stop-color="#F9F9F9"/>
</linearGradient>
<linearGradient id="paint2_linear_1951_5406" x1="2116.99" y1="232.559" x2="501.93" y2="232.559" gradientUnits="userSpaceOnUse">
<stop stop-color="#EDEDED"/>
<stop offset="1" stop-color="#F9F9F9"/>
</linearGradient>
<linearGradient id="paint3_linear_1951_5406" x1="2116.99" y1="232.559" x2="501.93" y2="232.559" gradientUnits="userSpaceOnUse">
<stop stop-color="#EDEDED"/>
<stop offset="1" stop-color="#F9F9F9"/>
</linearGradient>
<linearGradient id="paint4_linear_1951_5406" x1="2116.99" y1="232.559" x2="501.93" y2="232.559" gradientUnits="userSpaceOnUse">
<stop stop-color="#EDEDED"/>
<stop offset="1" stop-color="#F9F9F9"/>
</linearGradient>
<linearGradient id="paint5_linear_1951_5406" x1="2116.99" y1="232.559" x2="501.93" y2="232.559" gradientUnits="userSpaceOnUse">
<stop stop-color="#EDEDED"/>
<stop offset="1" stop-color="#F9F9F9"/>
</linearGradient>
</defs>
</svg>
